<svg id="Ebene_1" data-name="Ebene 1" xmlns="http://www.w3.org/2000/svg" xmlns:xlink="http://www.w3.org/1999/xlink" viewBox="0 0 249 68"><defs><style>.cls-1{fill:url(#Unbenannter_Verlauf_126);}.cls-2{fill:url(#Unbenannter_Verlauf_98);}.cls-3{fill:#fff;}</style><linearGradient id="Unbenannter_Verlauf_126" x1="35.67" y1="186.23" x2="186.28" y2="-71.87" gradientUnits="userSpaceOnUse"><stop offset="0.09" stop-color="#ffc805"/><stop offset="0.18" stop-color="#fec004"/><stop offset="0.33" stop-color="#fbaa01"/><stop offset="0.35" stop-color="#faa600"/><stop offset="0.4" stop-color="#faa201"/><stop offset="0.45" stop-color="#f89606"/><stop offset="0.5" stop-color="#f6820d"/><stop offset="0.55" stop-color="#f26517"/><stop offset="0.6" stop-color="#ee4125"/><stop offset="0.65" stop-color="#e91534"/><stop offset="0.67" stop-color="#e6003c"/><stop offset="0.73" stop-color="#e2023c"/><stop offset="0.78" stop-color="#d5073b"/><stop offset="0.84" stop-color="#c11039"/><stop offset="0.85" stop-color="#be1139"/><stop offset="0.91" stop-color="#aa1937"/></linearGradient><linearGradient id="Unbenannter_Verlauf_98" x1="606.3" y1="472.74" x2="694.7" y2="321.26" gradientUnits="userSpaceOnUse"><stop offset="0.05" stop-color="#ffc805"/><stop offset="0.09" stop-color="#fec004"/><stop offset="0.15" stop-color="#fbaa01"/><stop offset="0.16" stop-color="#faa600"/><stop offset="0.32" stop-color="#faa401"/><stop offset="0.38" stop-color="#f99d03"/><stop offset="0.42" stop-color="#f89207"/><stop offset="0.45" stop-color="#f5810e"/><stop offset="0.48" stop-color="#f36b15"/><stop offset="0.5" stop-color="#f04f1f"/><stop offset="0.53" stop-color="#ec2f2b"/><stop offset="0.55" stop-color="#e70b38"/><stop offset="0.55" stop-color="#e6003c"/><stop offset="0.64" stop-color="#e2023c"/><stop offset="0.74" stop-color="#d5073b"/><stop offset="0.84" stop-color="#c11039"/><stop offset="0.91" stop-color="#aa1937"/></linearGradient></defs><rect class="cls-1" width="249" height="68" rx="12"/><path class="cls-2" d="M763,364a11,11,0,0,1,11,11v44a11,11,0,0,1-11,11H538a11,11,0,0,1-11-11V375a11,11,0,0,1,11-11H763m0-1H538a12,12,0,0,0-12,12v44a12,12,0,0,0,12,12H763a12,12,0,0,0,12-12V375a12,12,0,0,0-12-12Z" transform="translate(-526 -363)"/><path class="cls-3" d="M574.83,389.36a1.37,1.37,0,0,1-.46.55,1.15,1.15,0,0,1-.62.17,1.64,1.64,0,0,1-.81-.28c-.3-.19-.66-.4-1.07-.62a8.37,8.37,0,0,0-1.43-.63,6.16,6.16,0,0,0-1.93-.27,5.81,5.81,0,0,0-1.76.24,4,4,0,0,0-1.26.67,2.77,2.77,0,0,0-.76,1,3.34,3.34,0,0,0-.25,1.32,2.32,2.32,0,0,0,.51,1.53,4.21,4.21,0,0,0,1.36,1.05,13.45,13.45,0,0,0,1.92.77c.72.23,1.46.47,2.21.73a22.07,22.07,0,0,1,2.2.9,7.57,7.57,0,0,1,1.93,1.29,6.07,6.07,0,0,1,1.36,1.92,6.73,6.73,0,0,1,.51,2.76,9,9,0,0,1-.6,3.3,7.67,7.67,0,0,1-1.76,2.68,8.41,8.41,0,0,1-2.84,1.8,10.39,10.39,0,0,1-3.83.66,11.77,11.77,0,0,1-2.45-.25,12.36,12.36,0,0,1-2.31-.69,11.93,11.93,0,0,1-2.07-1.08,10,10,0,0,1-1.72-1.4l1.4-2.32a1.81,1.81,0,0,1,.48-.43,1.18,1.18,0,0,1,.62-.17,1.69,1.69,0,0,1,1,.37c.35.25.76.52,1.23.82a10.12,10.12,0,0,0,1.68.82,6.58,6.58,0,0,0,2.31.37,4.75,4.75,0,0,0,3.2-1,3.53,3.53,0,0,0,1.14-2.82,2.62,2.62,0,0,0-.51-1.67,4.12,4.12,0,0,0-1.36-1.09,9.7,9.7,0,0,0-1.93-.75c-.72-.2-1.45-.43-2.2-.67a18.4,18.4,0,0,1-2.19-.86,7.31,7.31,0,0,1-1.93-1.31,6.18,6.18,0,0,1-1.36-2,7.77,7.77,0,0,1-.51-3,7.19,7.19,0,0,1,2.22-5.16,8.15,8.15,0,0,1,2.68-1.68,9.69,9.69,0,0,1,3.61-.63,12.11,12.11,0,0,1,4.25.72,9.59,9.59,0,0,1,3.31,2Z" transform="translate(-526 -363)"/><path class="cls-3" d="M584,392.18v11.74a4,4,0,0,0,.78,2.62,2.92,2.92,0,0,0,2.35.92,4.71,4.71,0,0,0,2.16-.51,7.53,7.53,0,0,0,1.91-1.41V392.18h4.44v18.47h-2.72a1.09,1.09,0,0,1-1.13-.81l-.31-1.48a12.83,12.83,0,0,1-1.18,1.06,8.4,8.4,0,0,1-1.31.81,7.7,7.7,0,0,1-1.49.52,7.88,7.88,0,0,1-1.72.19,6.39,6.39,0,0,1-2.67-.52,5.35,5.35,0,0,1-2-1.44,6.37,6.37,0,0,1-1.19-2.23,9.39,9.39,0,0,1-.41-2.83V392.18Z" transform="translate(-526 -363)"/><path class="cls-3" d="M600.4,410.65V392.18h2.72a1.1,1.1,0,0,1,1.14.81l.3,1.46a10.46,10.46,0,0,1,1.18-1,7.2,7.2,0,0,1,1.32-.81,6.5,6.5,0,0,1,1.48-.53,7.79,7.79,0,0,1,1.73-.18,6.47,6.47,0,0,1,2.68.52,5.23,5.23,0,0,1,1.95,1.44,6.1,6.1,0,0,1,1.19,2.21,9.41,9.41,0,0,1,.41,2.84v11.75h-4.45V398.9a3.94,3.94,0,0,0-.78-2.62,2.9,2.9,0,0,0-2.35-.93,4.59,4.59,0,0,0-2.16.52,7.83,7.83,0,0,0-1.91,1.42v13.36Z" transform="translate(-526 -363)"/><path class="cls-3" d="M620.87,410.65V392.18h2.61a1.42,1.42,0,0,1,.95.25,1.47,1.47,0,0,1,.36.87l.27,2.23a8.77,8.77,0,0,1,2.33-2.7,4.85,4.85,0,0,1,3-1,3.85,3.85,0,0,1,2.27.63l-.57,3.33a.7.7,0,0,1-.24.46.78.78,0,0,1-.48.13,3.17,3.17,0,0,1-.74-.12,4.66,4.66,0,0,0-1.24-.13,3.77,3.77,0,0,0-2.38.77,5.77,5.77,0,0,0-1.67,2.24v11.5Z" transform="translate(-526 -363)"/><path class="cls-3" d="M641,386.8a2.51,2.51,0,0,1-.24,1.08,2.75,2.75,0,0,1-.62.88,3,3,0,0,1-.91.6,2.79,2.79,0,0,1-1.11.23,2.66,2.66,0,0,1-1.09-.23,2.79,2.79,0,0,1-.89-.6,2.72,2.72,0,0,1-.61-.88,2.64,2.64,0,0,1-.22-1.08,2.8,2.8,0,0,1,.22-1.12,2.92,2.92,0,0,1,.61-.9,2.79,2.79,0,0,1,.89-.6,2.66,2.66,0,0,1,1.09-.22,2.78,2.78,0,0,1,1.11.22,3,3,0,0,1,.91.6,3,3,0,0,1,.62.9A2.65,2.65,0,0,1,641,386.8Zm-.67,5.38v18.47h-4.45V392.18Z" transform="translate(-526 -363)"/><path class="cls-3" d="M656.29,395.78a1.26,1.26,0,0,1-.37.41,1.1,1.1,0,0,1-.51.11,1.58,1.58,0,0,1-.69-.18l-.86-.4a7.71,7.71,0,0,0-1.1-.41,5.38,5.38,0,0,0-1.47-.18,3.42,3.42,0,0,0-2.07.56,1.75,1.75,0,0,0-.76,1.46,1.38,1.38,0,0,0,.39,1,3.4,3.4,0,0,0,1,.71,10,10,0,0,0,1.45.55c.54.16,1.09.34,1.65.53a15.93,15.93,0,0,1,1.66.66,5.61,5.61,0,0,1,1.45.93,4.46,4.46,0,0,1,1,1.36,4.31,4.31,0,0,1,.39,1.91,6,6,0,0,1-.49,2.46,5.3,5.3,0,0,1-1.42,1.94,6.6,6.6,0,0,1-2.31,1.28,10.16,10.16,0,0,1-3.16.46,10.29,10.29,0,0,1-1.86-.17,12.16,12.16,0,0,1-1.75-.48,9.18,9.18,0,0,1-1.55-.72,8.19,8.19,0,0,1-1.25-.9l1-1.69a1.41,1.41,0,0,1,.47-.47,1.27,1.27,0,0,1,.68-.16,1.45,1.45,0,0,1,.78.23c.25.16.53.33.86.51a7.75,7.75,0,0,0,1.14.5,4.94,4.94,0,0,0,1.67.23,4.15,4.15,0,0,0,1.35-.19,2.87,2.87,0,0,0,.94-.49,1.75,1.75,0,0,0,.54-.71,2.21,2.21,0,0,0,.17-.84,1.49,1.49,0,0,0-.39-1.06,3.2,3.2,0,0,0-1-.72,10.17,10.17,0,0,0-1.46-.55c-.55-.16-1.1-.34-1.67-.53a15.14,15.14,0,0,1-1.68-.68,5.58,5.58,0,0,1-1.46-1,4.51,4.51,0,0,1-1-1.45,5.1,5.1,0,0,1-.39-2.09,5.29,5.29,0,0,1,.45-2.16,5,5,0,0,1,1.32-1.79,6.74,6.74,0,0,1,2.18-1.23,10,10,0,0,1,6.49.17,7.8,7.8,0,0,1,2.61,1.66Z" transform="translate(-526 -363)"/><path class="cls-3" d="M668.7,391.89a9,9,0,0,1,3.21.56,7.07,7.07,0,0,1,2.53,1.63,7.28,7.28,0,0,1,1.65,2.63,9.82,9.82,0,0,1,.6,3.55,6.3,6.3,0,0,1-.05.84,1.28,1.28,0,0,1-.16.52.62.62,0,0,1-.31.27,1.27,1.27,0,0,1-.51.08H664.25a6.35,6.35,0,0,0,1.53,4.18,4.76,4.76,0,0,0,3.53,1.33,6,6,0,0,0,1.86-.25,8.46,8.46,0,0,0,1.37-.56c.39-.2.73-.39,1-.56a1.83,1.83,0,0,1,.86-.25.94.94,0,0,1,.81.42l1.3,1.62a7.78,7.78,0,0,1-1.66,1.44,9,9,0,0,1-1.92.94,11,11,0,0,1-2,.5,15.57,15.57,0,0,1-2,.14,9.77,9.77,0,0,1-3.58-.64,8.2,8.2,0,0,1-2.88-1.89,8.83,8.83,0,0,1-1.93-3.1,12.13,12.13,0,0,1-.7-4.27,10.44,10.44,0,0,1,.61-3.56,8.57,8.57,0,0,1,1.76-2.89,8.13,8.13,0,0,1,2.79-2A9.21,9.21,0,0,1,668.7,391.89Zm.09,3.19a4.15,4.15,0,0,0-3,1.1,5.39,5.39,0,0,0-1.4,3.11h8.35a5.78,5.78,0,0,0-.23-1.63,3.94,3.94,0,0,0-.72-1.34,3.44,3.44,0,0,0-1.23-.91A4.16,4.16,0,0,0,668.79,395.08Z" transform="translate(-526 -363)"/><path class="cls-3" d="M685.09,384.62h4.07a1.76,1.76,0,0,1,1.05.3,1.41,1.41,0,0,1,.57.8l4.43,15.57c.11.38.21.8.3,1.25s.17.93.26,1.43c.09-.5.2-1,.31-1.43s.24-.87.37-1.25l5.11-15.57a1.76,1.76,0,0,1,.57-.76,1.64,1.64,0,0,1,1-.34h1.43a1.73,1.73,0,0,1,1,.3,1.52,1.52,0,0,1,.58.8l5.07,15.57a20.94,20.94,0,0,1,.69,2.56c.08-.47.17-.92.26-1.35s.18-.84.28-1.21l4.42-15.57a1.45,1.45,0,0,1,.56-.77,1.69,1.69,0,0,1,1-.33h3.79l-8.08,26h-4.37l-5.69-17.78c-.07-.23-.15-.48-.22-.74s-.16-.55-.23-.85c-.07.3-.15.58-.22.85l-.23.74-5.74,17.78h-4.38Z" transform="translate(-526 -363)"/><path class="cls-3" d="M731.82,391.89a9,9,0,0,1,3.21.56,7.07,7.07,0,0,1,2.53,1.63,7.43,7.43,0,0,1,1.66,2.63,10,10,0,0,1,.59,3.55,6.54,6.54,0,0,1,0,.84,1.45,1.45,0,0,1-.16.52.64.64,0,0,1-.32.27,1.22,1.22,0,0,1-.5.08H727.37a6.45,6.45,0,0,0,1.53,4.18,4.77,4.77,0,0,0,3.53,1.33,6.14,6.14,0,0,0,1.87-.25,8.33,8.33,0,0,0,1.36-.56c.39-.2.74-.39,1-.56a1.79,1.79,0,0,1,.85-.25,1,1,0,0,1,.47.11.91.91,0,0,1,.34.31l1.3,1.62a7.32,7.32,0,0,1-1.66,1.44,9.15,9.15,0,0,1-1.91.94,11.25,11.25,0,0,1-2,.5,15.54,15.54,0,0,1-2,.14,9.82,9.82,0,0,1-3.59-.64,8.2,8.2,0,0,1-2.88-1.89,9,9,0,0,1-1.92-3.1A11.91,11.91,0,0,1,723,401a10.2,10.2,0,0,1,.61-3.56,8.55,8.55,0,0,1,1.75-2.89,8.33,8.33,0,0,1,2.79-2A9.21,9.21,0,0,1,731.82,391.89Zm.09,3.19a4.11,4.11,0,0,0-3,1.1,5.46,5.46,0,0,0-1.41,3.11h8.36a5.45,5.45,0,0,0-.24-1.63,3.62,3.62,0,0,0-.72-1.34,3.4,3.4,0,0,0-1.22-.91A4.2,4.2,0,0,0,731.91,395.08Z" transform="translate(-526 -363)"/></svg>