<svg xmlns="http://www.w3.org/2000/svg" width="150" height="100" viewBox="12 12 114.636 26"><defs><style>.a{fill:#e6003c;}.b{fill:none;}</style></defs><path class="a" d="M94.851,93.838a7.218,7.218,0,0,1-2.769,5.97,10.26,10.26,0,0,1-6.239,1.89,12.451,12.451,0,0,1-8.777-3.382l-.084-.088,3.843-3.883.088.1a7.151,7.151,0,0,0,4.93,2.383c1.153,0,3.088-.312,3.088-2.4,0-1.666-1.656-2.2-4.662-3.17l-.07-.023c-2.977-.959-6.019-2.514-6.019-6.773,0-5.113,4.574-7.4,9.106-7.4a11.864,11.864,0,0,1,7.688,2.883l.1.086-3.757,3.964-.09-.106a5.65,5.65,0,0,0-4.035-1.956c-.732,0-3.121.159-3.121,2.2,0,1.439,1.26,1.9,3.486,2.6C90.633,87.732,94.851,89.094,94.851,93.838Zm60.915-14.293a2.686,2.686,0,0,1-.238,1.126,2.845,2.845,0,0,1-1.585,1.506,3.084,3.084,0,0,1-1.157.222,2.912,2.912,0,0,1-2.125-.84,2.72,2.72,0,0,1-.856-2.013,2.769,2.769,0,0,1,.222-1.094,2.584,2.584,0,0,1,.634-.9,3.417,3.417,0,0,1,.951-.618,2.869,2.869,0,0,1,1.173-.238,3.1,3.1,0,0,1,1.157.222,2.937,2.937,0,0,1,.951.6,2.905,2.905,0,0,1,.634.9A2.688,2.688,0,0,1,155.767,79.546Zm34.223,9.593a10.887,10.887,0,0,1,.615,3.792V93.6a5.842,5.842,0,0,1-.033.632H178.563a2.892,2.892,0,0,0,.416,1.264,3.592,3.592,0,0,0,.9.981,4.408,4.408,0,0,0,2.645.881,4.587,4.587,0,0,0,2.2-.482,4.34,4.34,0,0,0,1.464-1.247l3.792,2.4a7.676,7.676,0,0,1-3.077,2.611,10.19,10.19,0,0,1-4.441.915,10.606,10.606,0,0,1-3.526-.582,8.553,8.553,0,0,1-2.911-1.7,7.852,7.852,0,0,1-1.963-2.745,9.182,9.182,0,0,1-.715-3.726,9.324,9.324,0,0,1,.7-3.676,8.311,8.311,0,0,1,1.9-2.794,8.451,8.451,0,0,1,2.828-1.78,9.673,9.673,0,0,1,3.526-.632,8.93,8.93,0,0,1,3.36.615,7.324,7.324,0,0,1,2.628,1.78,8.234,8.234,0,0,1,1.713,2.828m-4.408,1.7a3.273,3.273,0,0,0-.815-2.229,3.079,3.079,0,0,0-2.445-.932,4.14,4.14,0,0,0-1.464.25,3.786,3.786,0,0,0-1.164.682,3.372,3.372,0,0,0-.8,1.014,2.966,2.966,0,0,0-.333,1.214Zm-16.659-1.5a6.1,6.1,0,0,0-1.563-1.064,4.323,4.323,0,0,0-1.9-.433,3.331,3.331,0,0,0-1.414.3,1.05,1.05,0,0,0-.649,1.031,1.027,1.027,0,0,0,.715,1,15.577,15.577,0,0,0,2.312.665,12.536,12.536,0,0,1,1.88.566,6.659,6.659,0,0,1,1.713.965,4.625,4.625,0,0,1,1.231,1.464,4.294,4.294,0,0,1,.466,2.062,4.967,4.967,0,0,1-2.279,4.391,7.1,7.1,0,0,1-2.279.965,10.941,10.941,0,0,1-2.528.3,12.489,12.489,0,0,1-3.975-.649,8.338,8.338,0,0,1-3.243-1.913l3.06-3.227a6.1,6.1,0,0,0,1.8,1.331,4.988,4.988,0,0,0,2.262.532,2.971,2.971,0,0,0,1.314-.316,1.134,1.134,0,0,0,.649-1.114,1.2,1.2,0,0,0-.8-1.131,14.349,14.349,0,0,0-2.5-.765,12.827,12.827,0,0,1-1.73-.532,5.468,5.468,0,0,1-1.547-.9,4.456,4.456,0,0,1-1.114-1.4,4.275,4.275,0,0,1-.433-2,4.838,4.838,0,0,1,.632-2.545,5.352,5.352,0,0,1,1.63-1.713,7.256,7.256,0,0,1,2.212-.982,9.552,9.552,0,0,1,2.412-.316,11.654,11.654,0,0,1,3.643.582,7.875,7.875,0,0,1,3.011,1.746Zm-18.865,11.677V84.448h5.456v16.567Zm-2.552-12.076a4.267,4.267,0,0,0-.715-.133q-.35-.033-.682-.033a3.9,3.9,0,0,0-1.846.4,3.761,3.761,0,0,0-1.2.962,3.648,3.648,0,0,0-.648,1.228,4.109,4.109,0,0,0-.2,1.161v8.493h-5.456V84.468h5.256v2.395h.066a5.4,5.4,0,0,1,1.8-2.076,4.625,4.625,0,0,1,2.694-.8,6.282,6.282,0,0,1,.649.033,2.526,2.526,0,0,1,.516.1Zm-19.34,12.076V91.966a7.331,7.331,0,0,0-.117-1.331,3.686,3.686,0,0,0-.382-1.114,1.994,1.994,0,0,0-.749-.765,2.375,2.375,0,0,0-1.214-.283,2.763,2.763,0,0,0-1.281.283,2.594,2.594,0,0,0-.915.782,3.539,3.539,0,0,0-.549,1.148,4.934,4.934,0,0,0-.183,1.347v8.982h-5.489V84.448h5.289v2.3h.067a5.486,5.486,0,0,1,.782-1.048,4.7,4.7,0,0,1,1.131-.882,7.039,7.039,0,0,1,1.414-.6,5.576,5.576,0,0,1,1.63-.233,6.127,6.127,0,0,1,2.828.6,5.413,5.413,0,0,1,1.879,1.547,6.1,6.1,0,0,1,1.031,2.179,9.868,9.868,0,0,1,.316,2.462v10.246Zm-19.568,0v-2.3h-.067a4.69,4.69,0,0,1-.782,1.065,4.922,4.922,0,0,1-1.131.865,6.906,6.906,0,0,1-1.43.6,5.751,5.751,0,0,1-1.647.233,6.018,6.018,0,0,1-2.811-.6,5.442,5.442,0,0,1-1.863-1.547,6.087,6.087,0,0,1-1.031-2.162,9.782,9.782,0,0,1-.316-2.478V84.448h5.489V93.43a8.536,8.536,0,0,0,.1,1.331,3.324,3.324,0,0,0,.383,1.131,2.1,2.1,0,0,0,.749.782,2.349,2.349,0,0,0,1.231.283,2.5,2.5,0,0,0,2.179-1.065A4.226,4.226,0,0,0,108.4,93.4V84.448h5.456v16.567Z" transform="translate(-64.412 -64.168)"/></svg>
